# xmcd CD database file
#
# Track frame offsets:
#	150
#	19241
#	41064
#	57535
#	73585
#	93011
#	113142
#	134225
#	150350
#	168251
#	186992
#	206792
#
# Disc length: 3003 seconds
#
# Revision: 0
# Processed by: cddbd v1.5.2PL0 Copyright (c) Steve Scherf et al.
# Submitted via: CDex 1.70beta2
#
DISCID=ab0bb90c
DTITLE=Hua Hin Smooth Jazz - The Cloud
DYEAR=2007
DGENRE=Jazz
TTITLE0=Rueng bon tieng - เรื่องบนเตียง
TTITLE1=Pawanar - ภาวนา
TTITLE2=Kwarm song jum sri jarng - ความทรงจำสีจาง
TTITLE3=Sieng khong hua jai - เสียงของหัวใจ
TTITLE4=Khor krai suk kon - ขอใครสักคน
TTITLE5=Tuk nartee hai ter - ทุกนาทีให้เธอ
TTITLE6=Wun nee ter bork ruk rue young - วันนี้เธอบอกรักหรือยัง
TTITLE7=Kun jai - คันใจ
TTITLE8=Puen gao - เพื่อนเก่า
TTITLE9=Chun jah yoo gub ter - ฉันจะอยู่กับเธอ
TTITLE10=Rob guan mar ruk gun - รบกวนมารักกัน
TTITLE11=Ploi mue - ปล่อยมือ
EXTD=YEAR: 2007
EXTT0=
EXTT1=
EXTT2=
EXTT3=
EXTT4=
EXTT5=
EXTT6=
EXTT7=
EXTT8=
EXTT9=
EXTT10=
EXTT11=
PLAYORDER=
